<?xml version="1.0" encoding="UTF-8" standalone="no"?>
<!-- Created with Inkscape (http://www.inkscape.org/) -->

<svg
   width="62mm"
   height="12mm"
   viewBox="0 0 125 25"
   version="1.1"
   id="svg1"
   inkscape:version="1.4.2 (f4327f4, 2025-05-13)"
   sodipodi:docname="powerblocks_logo_dark.svg"
   inkscape:export-filename="powerblocks_logo_light.png"
   inkscape:export-xdpi="96"
   inkscape:export-ydpi="96"
   xmlns:inkscape="http://www.inkscape.org/namespaces/inkscape"
   xmlns:sodipodi="http://sodipodi.sourceforge.net/DTD/sodipodi-0.dtd"
   xmlns="http://www.w3.org/2000/svg"
   xmlns:svg="http://www.w3.org/2000/svg">
  <sodipodi:namedview
     id="namedview1"
     pagecolor="#0d0821"
     bordercolor="#000000"
     borderopacity="0.25"
     inkscape:showpageshadow="2"
     inkscape:pageopacity="0.0"
     inkscape:pagecheckerboard="0"
     inkscape:deskcolor="#d1d1d1"
     inkscape:document-units="mm"
     inkscape:zoom="1"
     inkscape:cx="237.5"
     inkscape:cy="-13"
     inkscape:window-width="1280"
     inkscape:window-height="730"
     inkscape:window-x="-6"
     inkscape:window-y="-6"
     inkscape:window-maximized="1"
     inkscape:current-layer="layer1" />
  <defs
     id="defs1">
    <inkscape:path-effect
       effect="spiro"
       id="path-effect3"
       is_visible="true"
       lpeversion="1" />
    <inkscape:path-effect
       effect="powerstroke"
       message=""
       id="path-effect2"
       is_visible="true"
       lpeversion="1.3"
       scale_width="1"
       interpolator_type="CubicBezierJohan"
       interpolator_beta="0.2"
       start_linecap_type="zerowidth"
       end_linecap_type="zerowidth"
       offset_points="0,4.9921382"
       linejoin_type="extrp_arc"
       miter_limit="4"
       not_jump="false"
       sort_points="true" />
    <inkscape:path-effect
       effect="powerstroke"
       message=""
       id="path-effect1"
       is_visible="true"
       lpeversion="1.3"
       scale_width="1"
       interpolator_type="CubicBezierJohan"
       interpolator_beta="0.2"
       start_linecap_type="zerowidth"
       end_linecap_type="zerowidth"
       offset_points="0,4.9921382"
       linejoin_type="extrp_arc"
       miter_limit="4"
       not_jump="false"
       sort_points="true" />
  </defs>
  <path
     style="fill:#ff8480;fill-opacity:1;stroke:none;stroke-width:1.615;stroke-linecap:round;stroke-linejoin:round;stroke-dasharray:none;stroke-opacity:1"
     d="M 23.845796,-8.4437085 1.5500319,30.173692 H -7.9150836 L 14.366387,-8.4394185 Z"
     id="path10"
     sodipodi:nodetypes="ccccc" />
  <path
     style="fill:#d5ab00;fill-opacity:1;stroke:none;stroke-width:1.615;stroke-linecap:round;stroke-linejoin:round;stroke-dasharray:none;stroke-opacity:1"
     d="M 33.217057,-8.4440785 10.921293,30.173322 H 1.4561779 L 23.737648,-8.4397885 Z"
     id="path10-3"
     sodipodi:nodetypes="ccccc" />
  <path
     style="fill:#8cc454;fill-opacity:1;stroke:none;stroke-width:1.615;stroke-linecap:round;stroke-linejoin:round;stroke-dasharray:none;stroke-opacity:1"
     d="M 42.404947,-8.4440585 20.109182,30.173342 h -9.465114 l 22.28147,-38.6131105 z"
     id="path10-3-1"
     sodipodi:nodetypes="ccccc" />
  <path
     style="fill:#46b9ff;fill-opacity:1;stroke:none;stroke-width:1.615;stroke-linecap:round;stroke-linejoin:round;stroke-dasharray:none;stroke-opacity:1"
     d="M 51.859833,-8.4434685 29.564068,30.173932 H 20.098953 L 42.380424,-8.4391785 Z"
     id="path10-3-1-5"
     sodipodi:nodetypes="ccccc" />
  <g
     inkscape:label="Layer 1"
     inkscape:groupmode="layer"
     id="layer1">
    <path
       style="font-style:italic;font-weight:bold;font-size:20.7082px;font-family:Sans;-inkscape-font-specification:'Sans, Bold Italic';stroke-width:1.34571;stroke-linecap:round;stroke-linejoin:round;fill:#ffffe1;fill-opacity:1"
       d="M 32.288657,21.648806 31.770952,10.342128 h 2.837023 l 0.04142,5.011385 q 0,0.828328 -0.02071,1.656656 0,0.80762 -0.08283,1.760197 h 0.08283 q 0.144958,-0.517705 0.372748,-1.138951 0.22779,-0.641954 0.414164,-1.159659 0.207082,-0.517706 0.289915,-0.704079 l 2.340026,-5.425549 h 3.313313 v 5.425549 q 0,0.704079 -0.02071,1.428866 0,0.724787 -0.08283,1.573823 h 0.103541 q 0.144957,-0.476289 0.352039,-1.118243 0.22779,-0.641954 0.45558,-1.2632 0.227791,-0.641955 0.393456,-1.03541 l 2.215778,-5.011385 h 3.10623 l -5.363424,11.306678 h -3.334021 l -0.06212,-5.259883 q 0,-0.434873 0,-1.03541 0.02071,-0.621246 0.04142,-1.263201 0.04142,-0.641954 0.06213,-1.138951 h -0.124249 q -0.165666,0.496997 -0.393456,1.118243 -0.207082,0.600538 -0.414164,1.159659 -0.207082,0.559122 -0.372748,0.952578 l -2.360735,5.466965 z m 19.92129,0.207082 q -1.987987,0 -3.230479,-1.076827 -1.242492,-1.097534 -1.242492,-3.292604 0,-1.428866 0.393456,-2.733482 0.414164,-1.325325 1.201075,-2.360735 0.80762,-1.03541 1.987988,-1.635948 1.180367,-0.621246 2.733482,-0.621246 1.905155,0 2.837024,0.869745 0.952577,0.869744 0.952577,2.215777 0,1.780905 -1.61524,2.857732 -1.594531,1.076826 -4.887135,1.076826 h -0.517705 q -0.02071,0.124249 -0.02071,0.22779 0,0.08283 0,0.186374 0,0.911161 0.517705,1.449574 0.538413,0.538413 1.49099,0.538413 0.890453,0 1.61524,-0.207082 0.724787,-0.207082 1.71878,-0.662662 v 2.29861 q -0.890452,0.434872 -1.801613,0.662663 -0.911161,0.207082 -2.132945,0.207082 z M 51.60941,15.105014 q 1.760197,0 2.5264,-0.538413 0.786912,-0.559121 0.786912,-1.283908 0,-0.952578 -1.056119,-0.952578 -0.559121,0 -1.118242,0.35204 -0.559122,0.352039 -0.993994,0.973285 -0.414164,0.621246 -0.600538,1.449574 z m 7.123605,6.543792 2.381443,-11.306678 h 2.505693 l -0.207082,1.946571 h 0.08283 q 0.704079,-1.056118 1.470283,-1.594531 0.786911,-0.559122 1.94657,-0.559122 0.248499,0 0.517705,0.02071 0.269207,0.02071 0.455581,0.08283 l -0.683371,3.002689 q -0.248498,-0.08283 -0.538413,-0.124249 -0.289915,-0.06212 -0.621246,-0.06212 -1.180367,0 -1.987987,0.952578 -0.80762,0.952577 -1.159659,2.588525 l -1.076827,5.052801 z"
       id="text10"
       transform="scale(0.9999775,1.0000225)"
       aria-label="wer" />
    <path
       style="fill:#ffffe1;fill-opacity:1;stroke:none;stroke-width:0.0893576;stroke-linecap:round;stroke-opacity:1"
       d="m 20.996694,15.456032 2.69317,-0.0295 c 0,0 0.08681,3.30238 1.704348,3.28328 1.452046,-0.0172 1.773427,-3.23234 1.773427,-3.23234 l 2.874114,0.0239 c 0,0 0.100859,6.23444 -4.499885,6.23307 -5.240301,0.19834 -4.545174,-6.2784 -4.545174,-6.2784 z"
       id="path4"
       sodipodi:nodetypes="ccsccccc" />
    <path
       style="fill:#ffffe1;fill-opacity:1;stroke:none;stroke-width:0.0893576;stroke-linecap:round;stroke-opacity:1"
       d="m 30.001391,14.588185 -2.889059,0.007 c 0,0 0.109082,-3.28036 -1.508458,-3.26126 -1.452047,0.0172 -1.975871,3.23234 -1.975871,3.23234 l -2.671671,-0.0239 c 0,0 -0.100858,-6.2344498 4.499885,-6.2330798 5.240302,-0.19834 4.545174,6.2784098 4.545174,6.2784098 z"
       id="path4-8"
       sodipodi:nodetypes="ccsccccc" />
    <path
       style="font-style:italic;font-weight:bold;font-size:26.0235px;font-family:'Century Gothic';-inkscape-font-specification:'Century Gothic, Bold Italic';fill:#ffffe1;fill-opacity:1;stroke:none;stroke-width:2.015;stroke-linecap:round;stroke-linejoin:round;stroke-dasharray:none;stroke-opacity:1"
       d="M 12.013698,20.917652 H 8.4887269 L 11.008381,2.2535019 h 3.29591 c 2.00215,0 3.414683,0.1734 4.2376,0.52021 1.018043,0.43139 1.790058,1.03195 2.316046,1.8017 0.525989,0.76975 0.788983,1.6706 0.788983,2.70257 0,1.13347 -0.309654,2.1612004 -0.928963,3.0832001 -0.610825,0.91354 -1.339216,1.44675 -2.495761,2.09924 -0.868016,0.57361 -3.572683,1.23252 -4.729033,1.21525 l 0.711067,-3.05721 c 1.017194,-0.6208697 2.467009,-1.0862597 3.052384,-1.4753601 0.585374,-0.38909 0.878061,-0.96851 0.878061,-1.73825 0,-0.4314 -0.11453,-0.79513 -0.343589,-1.09118 -0.22906,-0.29606 -0.568407,-0.5033 -1.018042,-0.62172 -0.449635,-0.11842 -1.340422,-0.17763 -2.672361,-0.17763 l -0.740552,5.9556001 z"
       id="text8"
       aria-label="PowerBlocks"
       sodipodi:nodetypes="cccscssccccssssccc" />
    <path
       style="font-style:italic;font-weight:bold;font-size:24.6863px;font-family:Calibri;-inkscape-font-specification:'Calibri, Bold Italic';fill:#d37c53;stroke-width:0.772661;stroke-linecap:round;fill-opacity:1"
       d="m 95.397415,6.3184363 q 0,0.7111776 -0.204915,1.3500321 -0.192862,0.6268006 -0.578586,1.1571703 -0.373669,0.5183159 -0.916093,0.928147 -0.530369,0.3977773 -1.193332,0.6388543 0.53037,0.09643 0.976363,0.337508 0.445993,0.241077 0.759393,0.614747 0.325454,0.37367 0.494208,0.891985 0.180808,0.506262 0.180808,1.145117 0,0.578585 -0.1567,1.205386 -0.1567,0.614746 -0.494208,1.205385 -0.337508,0.590639 -0.879932,1.133063 -0.542424,0.53037 -1.313871,0.940201 -0.759393,0.397777 -1.759863,0.638854 -1.00047,0.229024 -2.326394,0.229024 h -4.327335 q -0.494208,0 -0.723232,-0.241078 -0.216969,-0.241077 -0.108484,-0.759393 L 85.549414,4.1366881 q 0.09643,-0.5303697 0.421885,-0.759393 0.337508,-0.2410772 0.771446,-0.2410772 h 3.74875 q 1.241547,0 2.145587,0.1928617 0.904039,0.1928618 1.518786,0.5906391 0.614747,0.3857234 0.928147,0.9884163 0.3134,0.590639 0.3134,1.4103013 z m -3.266595,0.590639 q 0,-0.337508 -0.120539,-0.590639 Q 91.889743,6.0653053 91.648665,5.8844975 91.407588,5.7036896 91.033919,5.6072587 90.672303,5.5108279 90.105772,5.5108279 H 88.38207 L 87.562408,9.560924 h 1.783971 q 0.7835,0 1.301816,-0.2410771 0.518316,-0.2531311 0.84377,-0.6388545 0.337508,-0.3977773 0.482155,-0.8678777 0.1567,-0.4701005 0.1567,-0.9040394 z m -0.53037,6.6296217 q 0,-0.771447 -0.578585,-1.21744 -0.566531,-0.445992 -1.820133,-0.445992 h -2.109425 l -0.879931,4.435819 h 2.242017 q 0.855824,0 1.434409,-0.241077 0.590639,-0.241077 0.964309,-0.626801 0.385723,-0.385723 0.566531,-0.879931 0.180808,-0.506262 0.180808,-1.024578 z m 7.798846,4.785381 q -0.02411,0.120539 -0.120539,0.21697 -0.08438,0.08438 -0.265184,0.144646 -0.180808,0.06027 -0.482155,0.08438 -0.301346,0.03616 -0.735285,0.03616 -0.458047,0 -0.747339,-0.03616 -0.277239,-0.02411 -0.433939,-0.08438 -0.1567,-0.06027 -0.216969,-0.144646 -0.04822,-0.09643 -0.02411,-0.21697 L 99.543942,2.4732558 q 0.02411,-0.1205386 0.108485,-0.2169695 0.08438,-0.096431 0.277239,-0.1567001 0.192864,-0.072323 0.482154,-0.1084847 0.30135,-0.036162 0.74734,-0.036162 0.44599,0 0.72323,0.036162 0.28929,0.036161 0.44599,0.1084847 0.1567,0.060269 0.20492,0.1567001 0.0482,0.096431 0.0241,0.2169695 z m 14.898564,-7.135883 q 0,0.867878 -0.16875,1.783971 -0.1567,0.916093 -0.50626,1.796024 -0.34956,0.867878 -0.90404,1.639325 -0.54242,0.759393 -1.31387,1.350032 -0.75939,0.578585 -1.74781,0.916093 -0.98842,0.337508 -2.22996,0.337508 -1.21744,0 -2.10943,-0.277238 -0.87993,-0.289293 -1.47057,-0.831717 -0.59064,-0.554477 -0.87993,-1.350032 -0.28929,-0.807608 -0.28929,-1.84424 0,-0.867878 0.1567,-1.783971 0.16875,-0.916093 0.51831,-1.783971 0.34956,-0.867877 0.89199,-1.6393243 0.55447,-0.7835007 1.31387,-1.3620859 0.77144,-0.5785851 1.75986,-0.9160932 0.98842,-0.337508 2.22996,-0.337508 1.21744,0 2.09738,0.2892926 0.89198,0.2772387 1.48262,0.8317162 0.59064,0.5424236 0.87993,1.350032 0.28929,0.7955546 0.28929,1.8321866 z m -3.134,0.204915 q 0,-0.506262 -0.10848,-0.891985 -0.0964,-0.397777 -0.33751,-0.6629623 -0.22903,-0.2772387 -0.60269,-0.421885 -0.36162,-0.1446463 -0.89199,-0.1446463 -0.60269,0 -1.08485,0.2410772 -0.48215,0.2290233 -0.86787,0.6268004 -0.37367,0.397777 -0.65091,0.928147 -0.27724,0.518316 -0.45805,1.096901 -0.18081,0.578585 -0.26518,1.181278 -0.0844,0.590639 -0.0844,1.133063 0,0.506262 0.0964,0.904039 0.10848,0.397778 0.33751,0.675016 0.24107,0.265185 0.60269,0.409831 0.37367,0.144647 0.90404,0.144647 0.60269,0 1.08485,-0.229024 0.48215,-0.241077 0.85582,-0.638854 0.38572,-0.409831 0.66296,-0.928147 0.27724,-0.53037 0.45805,-1.108955 0.18081,-0.590639 0.26518,-1.181278 0.0844,-0.590639 0.0844,-1.133063 z m 14.15123,-3.1098949 q 0,0.2772387 -0.0723,0.6268006 -0.0603,0.3495619 -0.16876,0.6629622 -0.10848,0.3134003 -0.27723,0.5303701 -0.1567,0.204915 -0.34957,0.204915 -0.1808,0 -0.34956,-0.144646 -0.16875,-0.144646 -0.42188,-0.3254543 -0.24108,-0.1808078 -0.61475,-0.3254541 -0.37367,-0.1567002 -0.96431,-0.1567002 -0.6268,0 -1.12101,0.2772388 -0.49421,0.2772387 -0.86788,0.7232318 -0.36161,0.433938 -0.60269,1.00047 -0.24108,0.554477 -0.39778,1.133062 -0.1567,0.566532 -0.22902,1.096901 -0.0603,0.518316 -0.0603,0.90404 0,0.976362 0.42189,1.482624 0.43394,0.506262 1.35003,0.506262 0.67501,0 1.15717,-0.168754 0.48215,-0.180808 0.81966,-0.385723 0.34956,-0.21697 0.59064,-0.385724 0.25313,-0.168754 0.45805,-0.168754 0.12054,0 0.16875,0.108485 0.0603,0.108485 0.0603,0.3134 0,0.204916 -0.0482,0.518316 -0.0482,0.301347 -0.1326,0.614747 -0.0723,0.3134 -0.18081,0.590639 -0.0964,0.265185 -0.26518,0.421885 -0.1567,0.1567 -0.50626,0.361616 -0.34956,0.192861 -0.80761,0.349562 -0.45805,0.1567 -1.00047,0.253131 -0.53037,0.09643 -1.10896,0.09643 -2.06121,0 -3.08578,-1.036631 -1.02458,-1.048686 -1.02458,-3.085788 0,-0.735285 0.13259,-1.615217 0.14465,-0.879931 0.45805,-1.759863 0.3134,-0.891985 0.80761,-1.7237016 0.50626,-0.8317161 1.22949,-1.4705706 0.72323,-0.6388544 1.67549,-1.0245779 0.95225,-0.3857234 2.1938,-0.3857234 0.48215,0 0.9402,0.072323 0.45805,0.072323 0.84377,0.2049156 0.38572,0.1205386 0.67502,0.2892926 0.30134,0.168754 0.44599,0.3134003 0.14464,0.1325924 0.18081,0.2410771 0.0482,0.1084848 0.0482,0.2651849 z m 12.05386,-0.759393 q 0,0.1928617 -0.16876,0.4580466 -0.1567,0.253131 -0.53037,0.6509083 l -3.79696,3.579996 2.47104,5.183158 q 0.12054,0.289293 0.16875,0.506262 0.0482,0.21697 0.0482,0.337508 0,0.144647 -0.0844,0.253131 -0.0723,0.108485 -0.26518,0.180808 -0.18081,0.07232 -0.50627,0.09643 -0.3134,0.03616 -0.79555,0.03616 -0.48215,0 -0.7835,-0.02411 -0.28929,-0.02411 -0.45805,-0.08438 -0.1567,-0.06027 -0.24108,-0.1567 -0.0723,-0.09643 -0.10848,-0.241077 l -2.54336,-5.665313 -1.13307,5.68942 q -0.0362,0.120539 -0.13259,0.21697 -0.0844,0.08438 -0.27724,0.144646 -0.18081,0.06027 -0.48215,0.08438 -0.30135,0.03616 -0.73529,0.03616 -0.44599,0 -0.73528,-0.03616 -0.27724,-0.02411 -0.43394,-0.07232 -0.1567,-0.06027 -0.21697,-0.144646 -0.0482,-0.09643 -0.0241,-0.21697 L 128.7866,2.4732558 q 0.0241,-0.1205386 0.10848,-0.2169695 0.0844,-0.096431 0.27724,-0.1567001 0.19287,-0.072323 0.48216,-0.1084847 0.30134,-0.036162 0.74734,-0.036162 0.44599,0 0.72323,0.036162 0.28929,0.036161 0.44599,0.1084847 0.1567,0.060269 0.20492,0.1567001 0.0482,0.096431 0.0241,0.2169695 l -1.8804,9.4381702 4.02599,-4.3032269 q 0.12054,-0.1446463 0.25313,-0.2410772 0.14465,-0.1084847 0.36162,-0.168754 0.21697,-0.060269 0.51831,-0.084377 0.3134,-0.024108 0.77145,-0.024108 0.44599,0 0.74734,0.024108 0.30135,0.024108 0.4701,0.084377 0.16875,0.048215 0.22902,0.1325925 0.0723,0.084377 0.0723,0.1928617 z m 8.7511,0.5183159 q 0,0.1446462 -0.0482,0.4339388 -0.0362,0.2772387 -0.12054,0.5665313 -0.0844,0.2892926 -0.20491,0.506262 -0.10849,0.2049156 -0.25313,0.2049156 -0.1567,0 -0.37367,-0.1084847 -0.20492,-0.1205386 -0.50626,-0.253131 -0.30135,-0.1446463 -0.71118,-0.253131 -0.39778,-0.1084847 -0.9402,-0.1084847 -0.42189,0 -0.7594,0.1084847 -0.32545,0.1084847 -0.54242,0.3013464 -0.21697,0.1808079 -0.33751,0.4339389 -0.10848,0.2531307 -0.10848,0.5424237 0,0.373669 0.30134,0.6268 0.31341,0.253131 0.77145,0.482155 0.45805,0.216969 0.98842,0.458046 0.53037,0.241078 0.98841,0.602693 0.45805,0.361616 0.7594,0.879932 0.30134,0.518316 0.30134,1.301816 0,0.916094 -0.34956,1.699594 -0.34956,0.771447 -1.02458,1.337979 -0.66296,0.566531 -1.62727,0.891985 -0.95225,0.3134 -2.15764,0.3134 -0.57858,0 -1.10895,-0.08438 -0.51832,-0.08438 -0.9402,-0.204915 -0.40983,-0.120539 -0.69913,-0.277239 -0.28929,-0.1567 -0.43394,-0.289293 -0.0964,-0.09643 -0.14464,-0.204915 -0.0362,-0.108485 -0.0362,-0.277239 0,-0.108485 0.012,-0.277239 0.0241,-0.168754 0.0603,-0.373669 0.0482,-0.204916 0.0964,-0.409831 0.0603,-0.204916 0.13259,-0.37367 0.0723,-0.168754 0.1567,-0.265185 0.0844,-0.108484 0.18081,-0.108484 0.16876,0 0.37367,0.144646 0.20492,0.144646 0.53037,0.325454 0.32545,0.168754 0.79555,0.325454 0.48216,0.144646 1.19334,0.144646 0.49421,0 0.85582,-0.108484 0.37367,-0.120539 0.61475,-0.325454 0.24107,-0.204916 0.34956,-0.470101 0.12054,-0.265185 0.12054,-0.566531 0,-0.421885 -0.30135,-0.68707 -0.28929,-0.265185 -0.73528,-0.494208 -0.446,-0.229024 -0.97637,-0.470101 -0.51831,-0.241077 -0.9643,-0.590639 -0.446,-0.349562 -0.74734,-0.867877 -0.2893,-0.518316 -0.2893,-1.301817 0,-0.855824 0.32546,-1.5911093 0.32545,-0.7352853 0.95225,-1.2777089 0.6268,-0.5544774 1.51879,-0.8558239 0.89198,-0.3134003 2.02505,-0.3134003 0.50626,0 0.97636,0.072323 0.48215,0.060269 0.85582,0.168754 0.38573,0.1084847 0.66296,0.2410771 0.2893,0.1325925 0.40984,0.2651849 0.13259,0.1205386 0.13259,0.4098312 z"
       id="text9"
       transform="scale(0.83447908,1.1983524)"
       aria-label="Blocks" />
  </g>
</svg>
